# xmcd
#
# Track frame offsets: 
#        150
#        14227
#        26822
#        44948
#        60447
#        74109
#        95807
#        113515
#        140554
#        158984
#
# Disc length: 2346 seconds
#
# Revision: 0
# Processed by: cddbd v1.5.2PL0 Copyright (c) Steve Scherf et al.
# Submitted via: ExactAudioCopy v0.99pb5
#
DISCID=9c09280a
DTITLE=Deathhammer - Onward To The Pits
DYEAR=2012
DGENRE=Black Thrash Metal
TTITLE0=Deathrashing Sacrifice
TTITLE1=Voodoo Rites
TTITLE2=Fullmoon Sorcery
TTITLE3=Emperor Of Sin
TTITLE4=To The Evil
TTITLE5=Final Black Mass
TTITLE6=Army Of Death
TTITLE7=Seduced By The Flames
TTITLE8=Leas Us Into Hell
TTITLE9=Onwards To The Pits
EXTD=
EXTT0=
EXTT1=
EXTT2=
EXTT3=
EXTT4=
EXTT5=
EXTT6=
EXTT7=
EXTT8=
EXTT9=
PLAYORDER=
